<svg id="svg" version="1.1" width="400" height="256" viewBox="0 0 400 256" xmlns="http://www.w3.org/2000/svg" xmlns:xlink="http://www.w3.org/1999/xlink" ><g id="svgg"><path id="path0" d="M20.333 226.497 C 18.637 226.939,16.978 227.418,16.645 227.561 C 16.136 227.780,14.027 228.400,13.167 228.583 C 7.576 229.775,5.274 230.130,2.125 230.282 L 0.000 230.385 0.000 243.192 L 0.000 256.000 200.000 256.000 L 400.000 256.000 400.000 250.083 L 400.000 244.167 398.938 244.167 C 395.112 244.167,392.841 243.192,387.220 239.134 C 383.004 236.090,382.642 236.171,383.833 239.890 C 384.479 241.905,384.502 242.930,383.907 243.202 C 382.626 243.785,378.600 241.940,376.041 239.597 C 375.111 238.745,375.083 238.890,375.083 244.589 L 375.083 249.659 374.373 250.371 L 373.662 251.083 371.956 251.072 C 368.900 251.051,368.768 250.882,368.693 246.907 L 368.635 243.865 367.512 244.328 C 365.524 245.148,362.444 245.761,361.708 245.483 C 361.093 245.251,361.258 244.697,362.500 242.833 C 363.981 240.610,363.997 240.699,362.125 240.727 C 360.317 240.754,360.201 240.604,360.822 239.028 C 361.214 238.034,361.180 238.020,359.778 238.572 C 355.730 240.166,354.740 240.404,352.134 240.411 C 349.006 240.418,348.818 240.197,350.282 238.234 C 350.889 237.421,350.805 237.333,349.423 237.333 L 348.180 237.333 348.131 235.891 L 348.083 234.449 347.417 234.221 C 347.050 234.096,346.523 233.887,346.246 233.757 C 345.025 233.183,343.126 232.485,343.036 232.575 C 342.981 232.630,343.064 233.029,343.219 233.462 C 343.375 233.895,343.501 234.466,343.501 234.731 L 343.500 235.212 341.917 235.129 C 341.028 235.083,340.333 235.112,340.333 235.197 C 340.333 235.448,340.938 236.518,341.824 237.833 C 342.797 239.278,342.886 239.752,342.208 239.884 C 341.430 240.036,337.411 239.219,335.961 238.613 L 335.365 238.364 335.305 241.307 C 335.224 245.219,334.931 245.586,331.884 245.581 C 330.287 245.578,329.840 245.341,329.197 244.154 L 328.798 243.417 328.907 238.824 C 329.035 233.377,328.970 233.046,327.987 234.100 C 327.765 234.338,326.796 234.999,325.833 235.568 C 320.166 238.919,318.781 238.603,320.167 234.276 C 321.020 231.611,320.689 230.459,319.404 231.630 C 318.864 232.123,314.996 234.877,313.583 235.775 C 310.468 237.756,308.691 238.410,305.917 238.595 C 302.545 238.819,302.272 238.211,304.361 235.128 C 305.368 233.642,305.414 233.686,303.297 234.114 C 296.257 235.539,284.724 235.435,278.542 233.891 C 278.232 233.813,278.167 233.866,278.167 234.193 C 278.167 237.147,273.545 236.676,273.065 233.673 C 272.927 232.811,272.810 232.669,272.171 232.588 C 271.474 232.500,270.706 232.318,266.667 231.287 C 260.328 229.668,254.399 228.205,253.083 227.935 C 252.350 227.784,250.325 227.367,248.583 227.007 C 243.612 225.980,242.943 225.916,237.417 225.927 C 231.311 225.940,224.930 226.504,215.917 227.827 C 214.725 228.002,213.268 228.191,212.680 228.247 C 212.091 228.303,211.560 228.380,211.499 228.417 C 211.438 228.455,211.018 228.522,210.566 228.566 C 209.337 228.687,203.326 229.721,196.750 230.943 C 190.895 232.031,189.652 232.252,188.417 232.422 C 188.050 232.473,185.275 232.995,182.250 233.581 C 173.530 235.273,169.045 236.123,167.250 236.423 C 166.333 236.576,164.646 236.879,163.500 237.096 C 145.185 240.562,137.328 240.968,121.958 239.239 C 119.568 238.970,119.333 238.992,119.333 239.485 C 119.333 240.782,118.361 241.543,116.683 241.559 C 114.844 241.575,114.113 240.935,113.899 239.118 L 113.797 238.248 107.274 237.189 C 98.872 235.825,90.556 234.116,83.667 232.336 C 80.772 231.588,80.333 231.546,80.333 232.016 C 80.333 233.241,79.201 235.765,78.538 236.017 C 77.381 236.457,74.439 235.610,72.778 234.358 C 72.174 233.903,71.406 233.495,70.917 233.368 C 69.264 232.942,66.423 230.396,65.448 228.466 C 65.191 227.957,64.799 227.369,64.578 227.161 C 64.123 226.734,64.148 226.698,63.833 228.250 C 63.515 229.812,62.809 230.103,61.417 229.246 C 61.050 229.020,60.578 228.835,60.368 228.834 C 60.158 228.834,59.695 228.685,59.340 228.503 L 58.692 228.173 57.978 229.045 C 57.586 229.524,56.729 230.464,56.074 231.134 L 54.883 232.351 54.960 237.550 L 55.036 242.750 54.643 243.324 C 53.650 244.772,50.972 245.159,49.000 244.139 C 47.292 243.255,47.334 243.439,47.334 236.896 C 47.333 231.405,47.273 230.333,46.963 230.333 C 46.873 230.333,45.351 231.760,43.580 233.503 C 40.260 236.771,39.477 237.344,38.814 236.990 C 37.725 236.407,37.170 232.653,37.811 230.210 L 38.122 229.025 37.756 229.164 C 37.402 229.299,35.279 230.214,31.705 231.773 C 25.731 234.378,20.000 235.435,20.000 233.932 C 20.000 233.111,22.208 228.631,23.334 227.167 C 23.581 226.846,23.915 226.377,24.077 226.125 L 24.372 225.667 23.894 225.680 C 23.632 225.687,22.029 226.055,20.333 226.497 M397.428 236.201 C 397.516 236.831,398.388 238.942,398.652 239.167 C 398.706 239.213,398.884 239.512,399.048 239.833 C 399.212 240.154,399.493 240.604,399.672 240.833 L 399.998 241.250 399.957 238.417 L 399.917 235.583 398.622 235.535 L 397.327 235.486 397.428 236.201 " stroke="none" fill="#ccecfc" fill-rule="evenodd"></path><path id="path1" d="" stroke="none" fill="#ccf4fc" fill-rule="evenodd"></path><path id="path2" d="M48.705 52.072 C 48.275 52.619,48.068 54.001,47.667 59.013 C 47.167 65.253,46.825 66.824,45.447 69.205 C 44.972 70.025,44.480 70.896,44.354 71.140 C 44.228 71.384,43.920 71.808,43.669 72.083 C 42.528 73.334,41.167 75.714,41.167 76.460 C 41.167 77.437,41.954 77.585,43.583 76.913 C 44.133 76.687,44.604 76.501,44.628 76.501 C 44.928 76.496,43.654 78.166,42.377 79.451 C 36.314 85.552,35.840 88.679,41.293 86.591 C 42.142 86.266,42.991 86.000,43.180 86.000 C 43.369 86.000,43.636 85.888,43.774 85.750 C 44.124 85.400,44.515 85.426,44.388 85.792 C 44.271 86.126,43.163 87.333,42.973 87.333 C 42.840 87.333,41.875 88.181,40.433 89.565 C 39.966 90.014,38.941 90.930,38.156 91.601 C 35.068 94.243,35.862 95.199,40.500 94.422 C 41.371 94.276,42.287 94.123,42.535 94.084 C 43.411 93.943,43.683 94.679,43.078 95.555 C 42.372 96.576,38.906 99.833,38.526 99.833 C 38.422 99.833,38.205 99.943,38.044 100.077 C 37.542 100.494,36.460 101.297,35.417 102.027 C 31.128 105.025,29.586 106.729,30.413 107.556 C 30.822 107.965,32.826 107.928,34.262 107.484 C 35.739 107.028,36.333 106.956,36.333 107.232 C 36.333 108.069,37.739 108.210,39.833 107.583 C 41.880 106.971,41.941 107.041,40.363 108.206 C 36.671 110.930,36.232 112.679,39.298 112.452 L 40.583 112.357 40.125 112.727 C 39.532 113.205,35.903 115.177,33.083 116.554 C 32.717 116.733,32.245 117.056,32.036 117.272 C 31.826 117.488,31.308 117.752,30.885 117.859 C 30.438 117.971,29.655 118.401,29.019 118.882 C 28.416 119.338,27.588 119.855,27.178 120.031 C 24.792 121.053,22.954 123.876,24.474 124.184 C 25.271 124.346,28.308 123.948,30.208 123.432 C 34.417 122.290,38.500 122.155,38.500 123.158 C 38.500 123.434,37.851 124.167,37.608 124.167 C 37.478 124.167,36.473 124.844,36.333 125.025 C 36.215 125.178,32.778 127.079,31.583 127.652 C 28.908 128.935,28.236 129.241,28.076 129.248 C 27.980 129.252,27.793 129.354,27.659 129.473 C 27.526 129.592,26.868 129.990,26.198 130.356 C 24.703 131.174,24.508 131.870,25.748 131.971 C 26.113 132.000,26.488 132.086,26.581 132.162 C 26.674 132.237,27.500 132.227,28.417 132.140 C 31.612 131.836,32.043 132.084,30.836 133.528 C 29.198 135.489,29.986 135.895,33.856 135.085 C 38.547 134.104,39.668 134.036,39.393 134.751 C 39.281 135.043,37.789 136.167,37.513 136.167 C 37.329 136.167,36.506 136.637,36.333 136.840 C 36.178 137.023,30.014 140.167,29.810 140.167 C 29.385 140.167,24.723 142.875,24.208 143.421 C 23.139 144.555,23.724 145.438,25.439 145.278 C 26.022 145.224,26.500 145.208,26.500 145.243 C 26.500 145.413,23.109 147.627,21.846 148.282 C 21.060 148.690,20.305 149.119,20.167 149.237 C 20.029 149.354,19.167 149.884,18.250 150.414 C 17.333 150.943,16.433 151.512,16.250 151.677 C 16.067 151.843,15.709 152.056,15.455 152.153 C 14.956 152.342,12.522 153.938,12.250 154.255 C 12.158 154.362,11.431 154.951,10.634 155.564 C 8.643 157.097,8.333 157.493,8.333 158.507 C 8.333 160.305,11.385 160.277,17.917 158.420 C 22.372 157.153,23.005 157.066,21.708 157.895 C 17.047 160.874,16.500 161.338,16.500 162.310 C 16.500 163.466,18.524 163.471,25.000 162.330 C 26.384 162.086,29.333 162.117,29.333 162.375 C 29.333 162.767,27.753 163.968,26.091 164.840 C 25.178 165.319,24.329 165.814,24.203 165.940 C 24.077 166.066,23.812 166.256,23.613 166.362 C 23.239 166.562,21.135 168.064,20.625 168.494 C 20.247 168.814,20.245 169.793,20.622 170.209 C 20.896 170.512,20.894 170.537,20.580 170.722 C 20.138 170.983,17.296 172.148,17.075 172.158 C 16.856 172.169,12.447 174.490,12.333 174.654 C 12.219 174.820,10.211 176.167,10.077 176.167 C 9.615 176.167,4.693 180.947,4.305 181.773 C 3.317 183.874,5.445 184.535,10.417 183.671 C 11.571 183.471,12.272 183.414,12.309 183.518 C 12.341 183.610,12.453 183.571,12.559 183.432 C 12.883 183.004,20.356 180.967,20.622 181.234 C 20.676 181.287,19.953 182.082,19.016 183.000 C 17.396 184.589,17.316 184.700,17.365 185.293 L 17.417 185.917 18.583 185.963 C 19.563 186.002,20.163 185.889,22.322 185.255 C 25.419 184.346,26.689 184.307,26.955 185.111 C 27.074 185.473,22.561 187.481,19.917 188.243 C 18.691 188.596,14.123 190.446,12.083 191.415 C 9.797 192.501,9.015 192.833,8.740 192.833 C 8.602 192.833,8.447 192.945,8.394 193.082 C 8.342 193.218,7.850 193.603,7.301 193.936 C 3.291 196.372,0.051 199.692,0.198 201.213 C 0.271 201.970,1.145 201.995,4.464 201.334 C 8.949 200.442,9.818 200.552,9.092 201.917 C 7.842 204.267,8.820 204.506,14.583 203.258 C 16.764 202.786,18.596 203.032,18.025 203.719 C 17.640 204.183,15.128 205.289,12.083 206.334 C 10.433 206.901,8.596 207.534,8.000 207.741 C 7.404 207.948,6.558 208.204,6.120 208.310 C 4.440 208.714,1.068 210.552,0.292 211.486 C 0.047 211.781,-0.000 212.185,-0.000 214.003 L 0.000 216.169 1.458 216.070 C 2.532 215.997,3.708 215.734,5.917 215.071 C 10.555 213.681,12.507 213.315,13.417 213.668 L 13.917 213.862 12.683 215.014 C 12.005 215.648,11.356 216.167,11.243 216.167 C 10.997 216.167,9.311 217.955,8.733 218.830 C 8.279 219.515,8.020 221.394,8.318 221.833 C 8.680 222.364,10.688 222.137,13.083 221.294 C 14.275 220.874,15.588 220.416,16.000 220.276 C 17.296 219.836,20.590 219.166,21.437 219.171 L 22.250 219.176 21.583 219.764 C 21.217 220.087,20.715 220.535,20.468 220.760 C 20.221 220.985,19.471 221.607,18.801 222.141 C 17.290 223.348,16.039 224.680,15.934 225.194 C 15.891 225.408,15.817 225.921,15.770 226.333 L 15.685 227.083 16.677 227.135 C 17.405 227.172,17.990 227.075,18.876 226.769 C 19.540 226.540,20.574 226.274,21.175 226.179 C 21.775 226.083,22.637 225.892,23.091 225.754 C 24.579 225.303,24.672 225.473,23.688 226.848 C 21.529 229.866,19.677 233.852,20.242 234.265 C 21.377 235.094,27.984 233.490,32.833 231.208 C 38.434 228.572,38.410 228.577,37.968 230.208 C 37.234 232.917,38.038 237.000,39.305 237.000 C 39.931 237.000,40.273 236.710,43.798 233.188 C 45.474 231.513,46.937 230.173,47.048 230.210 C 47.199 230.261,47.271 231.841,47.333 236.521 C 47.429 243.674,47.355 243.326,48.949 244.106 C 50.715 244.970,53.049 244.817,54.098 243.769 C 55.056 242.811,55.169 241.538,54.817 235.709 L 54.633 232.669 55.866 231.293 C 56.851 230.192,58.461 228.271,58.593 228.038 C 58.607 228.013,58.948 228.181,59.351 228.411 C 59.754 228.641,60.233 228.833,60.417 228.837 C 60.600 228.841,61.050 228.990,61.417 229.167 C 62.952 229.908,63.557 229.605,63.910 227.919 C 64.039 227.304,64.177 226.768,64.216 226.728 C 64.256 226.689,64.907 227.558,65.662 228.660 C 67.665 231.581,68.964 232.718,70.833 233.185 C 71.438 233.336,72.119 233.693,72.833 234.234 C 74.745 235.680,77.113 236.430,78.413 236.001 C 79.158 235.755,80.123 233.653,80.404 231.667 C 80.569 230.497,80.608 230.473,81.839 230.790 C 82.729 231.018,83.844 231.068,88.250 231.075 L 93.583 231.083 94.848 230.459 C 96.541 229.625,97.167 229.498,97.167 229.990 C 97.167 231.317,98.079 231.416,101.333 230.441 C 104.409 229.520,104.842 229.593,104.250 230.932 C 103.488 232.655,103.839 233.661,105.118 233.421 C 105.889 233.276,107.653 232.553,108.013 232.233 C 108.158 232.105,108.377 232.000,108.499 232.000 C 108.622 232.000,109.264 231.662,109.925 231.250 C 111.377 230.345,111.333 230.349,111.333 231.130 C 111.333 232.313,112.663 233.058,113.333 232.250 C 113.951 231.506,114.027 231.870,113.986 235.375 C 113.924 240.758,114.227 241.430,116.706 241.398 C 119.209 241.367,119.434 240.907,119.370 235.940 C 119.317 231.888,119.354 231.577,119.850 231.842 C 120.672 232.282,121.865 231.970,122.244 231.216 C 122.438 230.831,122.646 230.466,122.706 230.405 C 122.767 230.344,123.589 230.671,124.533 231.132 C 128.314 232.975,130.324 233.179,130.336 231.719 C 130.342 231.003,130.567 230.954,131.684 231.426 C 135.253 232.935,137.042 232.800,136.185 231.084 C 135.981 230.675,135.743 230.297,135.657 230.244 C 135.362 230.062,135.500 229.860,135.992 229.752 C 137.056 229.518,136.820 228.879,134.824 226.583 C 133.550 225.117,133.910 224.970,136.250 226.003 C 142.425 228.729,146.283 229.076,145.939 226.875 C 145.839 226.235,145.715 226.250,147.638 226.669 C 149.436 227.062,151.445 227.259,152.064 227.103 C 152.571 226.976,152.683 226.193,152.246 225.830 C 151.836 225.490,152.003 225.491,154.010 225.836 C 157.534 226.443,158.869 226.186,158.967 224.881 C 159.064 223.589,154.515 221.154,150.167 220.170 C 148.718 219.843,144.437 217.770,143.612 216.997 L 143.083 216.502 143.614 216.501 C 144.382 216.500,146.212 216.909,148.015 217.486 C 153.206 219.145,155.500 219.034,155.500 217.124 C 155.500 216.391,155.843 216.212,157.618 216.020 C 159.647 215.800,160.709 215.021,160.440 213.949 C 160.244 213.168,159.276 212.821,154.750 211.908 C 150.960 211.144,145.706 209.145,140.196 206.370 L 137.308 204.917 138.689 204.734 C 139.858 204.580,140.119 204.488,140.385 204.131 C 140.662 203.761,140.772 203.726,141.308 203.842 C 142.882 204.181,144.886 204.319,145.703 204.143 L 146.539 203.964 146.461 203.149 C 146.418 202.700,146.400 202.333,146.421 202.333 C 146.442 202.333,146.882 202.527,147.398 202.763 C 149.320 203.643,151.176 203.629,152.017 202.729 C 152.596 202.109,153.194 201.844,154.629 201.569 C 156.116 201.285,156.406 200.985,156.063 200.090 C 155.912 199.698,152.023 197.957,147.453 196.235 C 144.706 195.201,137.220 190.719,135.545 189.106 C 135.065 188.644,134.559 188.203,134.420 188.125 C 133.999 187.889,133.606 186.994,133.827 186.773 C 133.949 186.651,135.137 186.553,137.133 186.500 C 140.655 186.406,140.723 186.386,140.636 185.480 C 140.585 184.945,140.626 184.833,140.876 184.833 C 142.412 184.833,142.828 183.696,141.504 183.114 C 140.318 182.593,140.397 182.561,143.125 182.454 C 146.136 182.335,146.896 182.128,146.966 181.408 C 147.028 180.776,146.587 180.338,145.713 180.166 C 143.417 179.714,137.621 177.642,135.905 176.660 C 135.431 176.389,134.946 176.167,134.827 176.167 C 134.477 176.167,132.181 174.671,131.993 174.321 C 131.830 174.017,131.890 174.000,133.148 174.000 C 134.294 174.000,134.538 173.947,134.946 173.609 C 135.205 173.394,135.661 173.171,135.960 173.113 C 136.259 173.055,136.709 172.865,136.960 172.690 C 137.372 172.404,137.554 172.389,138.833 172.536 C 140.605 172.740,141.554 172.499,141.633 171.825 C 141.705 171.205,141.362 170.978,138.667 169.859 C 137.337 169.307,135.953 168.700,135.590 168.511 C 135.227 168.322,134.829 168.167,134.706 168.167 C 134.584 168.167,134.248 168.045,133.960 167.896 L 133.437 167.625 133.885 167.299 C 134.836 166.606,134.460 166.040,132.417 165.088 C 131.683 164.746,130.631 164.253,130.079 163.993 C 129.491 163.715,128.611 163.075,127.956 162.448 L 126.836 161.377 128.089 161.297 C 129.090 161.232,129.423 161.141,129.741 160.841 C 130.013 160.587,130.451 160.429,131.112 160.349 C 132.749 160.150,133.214 159.677,132.508 158.925 L 132.182 158.579 134.019 158.641 C 137.488 158.760,137.686 157.058,134.333 155.935 C 133.829 155.767,132.967 155.420,132.417 155.166 C 131.867 154.911,131.117 154.578,130.750 154.426 C 129.213 153.788,128.617 153.332,128.904 153.014 C 129.454 152.406,128.983 151.841,125.697 149.167 C 124.479 148.176,123.028 146.557,123.217 146.400 C 123.235 146.385,123.981 146.453,124.874 146.551 L 126.499 146.730 126.995 146.254 C 127.363 145.902,127.734 145.746,128.421 145.653 C 130.138 145.420,130.375 144.651,128.958 143.913 C 128.477 143.662,128.046 143.401,128.000 143.333 C 127.954 143.265,127.429 142.965,126.833 142.666 C 125.478 141.986,124.407 141.260,123.713 140.552 C 123.114 139.941,123.058 139.999,124.475 139.762 C 124.782 139.710,125.256 139.480,125.529 139.251 C 125.804 139.020,126.237 138.833,126.499 138.833 C 128.099 138.833,127.842 138.222,125.792 137.148 C 124.852 136.657,123.793 136.102,123.438 135.916 C 122.665 135.512,122.647 135.298,123.368 135.111 C 124.034 134.938,124.833 134.383,124.833 134.093 C 124.833 133.792,123.502 132.594,122.725 132.194 C 122.030 131.837,120.000 130.068,120.000 129.819 C 120.000 129.735,120.150 129.667,120.333 129.667 C 120.751 129.667,120.793 128.921,120.407 128.370 C 120.160 128.018,120.168 128.000,120.553 128.000 C 122.444 128.000,122.774 126.974,121.164 126.098 C 120.189 125.567,119.667 125.061,119.667 124.646 C 119.667 124.486,119.321 123.850,118.899 123.233 L 118.131 122.112 118.399 121.550 C 118.750 120.814,118.740 120.676,118.269 119.813 C 117.809 118.969,117.614 118.155,117.239 115.501 C 116.733 111.919,115.962 112.026,115.416 115.755 C 115.063 118.159,114.752 119.502,114.226 120.888 C 113.890 121.775,113.816 122.199,113.894 122.805 L 113.995 123.583 112.831 124.651 C 112.190 125.238,111.311 125.951,110.877 126.235 C 109.565 127.094,109.741 127.626,111.406 127.832 C 112.022 127.908,112.562 128.006,112.605 128.050 C 112.740 128.185,111.563 129.066,110.127 129.905 C 107.321 131.545,106.817 132.013,107.161 132.655 C 107.262 132.845,107.506 133.000,107.703 133.000 C 107.900 133.000,108.392 133.160,108.795 133.355 C 109.387 133.642,109.722 133.693,110.527 133.620 C 111.521 133.530,111.524 133.531,111.221 133.867 C 110.812 134.320,108.000 136.167,107.717 136.167 C 107.455 136.167,106.140 136.966,105.961 137.233 C 105.444 138.008,106.078 138.500,107.595 138.500 C 108.276 138.500,108.833 138.541,108.833 138.591 C 108.833 138.770,107.912 139.471,107.253 139.794 C 106.885 139.974,105.683 140.557,104.583 141.090 C 101.004 142.823,100.719 144.000,103.878 144.000 C 104.668 144.000,105.360 144.075,105.417 144.167 C 105.572 144.418,106.919 144.352,108.458 144.018 L 109.833 143.719 108.809 144.651 C 107.263 146.059,104.222 147.799,102.715 148.137 C 100.547 148.624,100.202 149.908,102.071 150.534 C 102.427 150.653,102.781 150.881,102.859 151.042 C 102.936 151.202,103.064 151.465,103.143 151.625 C 103.320 151.988,105.500 152.227,107.250 152.075 L 108.417 151.973 107.809 152.445 C 107.475 152.704,106.603 153.373,105.873 153.931 C 105.142 154.489,104.381 155.098,104.181 155.284 C 103.981 155.470,103.540 155.764,103.201 155.936 C 102.433 156.327,100.446 157.531,100.333 157.675 C 100.287 157.733,99.500 158.216,98.583 158.749 C 96.520 159.946,96.333 160.106,96.333 160.672 C 96.333 161.409,97.056 161.612,98.462 161.271 C 99.851 160.934,100.271 160.930,100.394 161.250 C 100.446 161.387,100.623 161.502,100.786 161.504 C 101.684 161.515,96.498 163.144,94.667 163.426 C 93.411 163.620,93.167 163.766,93.167 164.325 C 93.167 165.068,93.737 165.367,95.208 165.394 L 96.416 165.417 96.364 166.017 C 96.308 166.659,96.522 166.826,97.750 167.100 C 98.025 167.161,98.390 167.333,98.561 167.481 C 98.806 167.693,99.179 167.740,100.339 167.704 L 101.807 167.659 101.612 168.176 C 101.381 168.788,101.676 169.103,102.612 169.248 C 102.917 169.295,103.438 169.376,103.770 169.428 L 104.374 169.523 103.895 170.023 C 103.345 170.598,101.990 171.659,101.230 172.109 C 100.944 172.278,100.194 172.708,99.564 173.065 C 98.933 173.422,98.098 173.893,97.708 174.114 C 96.943 174.547,96.736 175.240,97.248 175.665 C 97.509 175.882,99.662 175.832,100.196 175.597 C 100.419 175.498,100.457 175.543,100.385 175.820 C 100.335 176.011,100.237 176.167,100.166 176.167 C 100.096 176.167,99.598 176.460,99.061 176.818 C 97.794 177.662,93.689 179.745,91.667 180.571 C 90.796 180.926,89.446 181.515,88.667 181.879 C 86.330 182.972,85.784 183.185,85.667 183.048 C 85.036 182.305,83.964 180.814,84.020 180.758 C 84.060 180.718,85.553 180.633,87.338 180.569 C 90.952 180.440,91.333 180.364,91.333 179.777 C 91.333 178.922,89.333 177.373,85.917 175.581 C 84.908 175.052,84.046 174.573,84.000 174.516 C 83.954 174.460,83.102 173.926,82.107 173.332 C 81.111 172.737,80.407 172.228,80.541 172.201 C 80.912 172.126,83.467 173.017,86.167 174.162 C 90.733 176.098,93.344 176.768,93.611 176.071 C 94.025 174.993,91.532 171.485,89.027 169.619 C 88.508 169.233,87.939 168.786,87.762 168.627 C 87.586 168.468,87.286 168.291,87.096 168.234 C 86.906 168.177,85.625 167.584,84.250 166.916 C 82.875 166.247,81.177 165.432,80.476 165.104 C 79.655 164.719,78.972 164.255,78.559 163.799 C 78.206 163.409,77.593 162.781,77.197 162.403 L 76.477 161.716 78.114 162.050 C 80.374 162.512,83.401 162.540,84.042 162.106 C 85.254 161.284,84.349 159.693,81.667 157.927 C 80.979 157.475,80.156 156.894,79.837 156.636 C 79.518 156.378,79.159 156.167,79.038 156.167 C 78.744 156.167,76.585 154.690,75.750 153.918 C 75.383 153.579,74.615 152.927,74.042 152.469 C 73.469 152.011,73.000 151.596,73.000 151.547 C 73.000 151.272,78.254 152.048,80.583 152.668 C 85.885 154.077,86.907 153.424,84.563 150.125 C 84.253 149.689,84.000 149.275,84.000 149.205 C 84.000 149.022,79.037 144.476,78.429 144.102 C 77.903 143.779,76.287 142.459,75.836 141.984 C 75.365 141.487,73.715 140.167,73.565 140.167 C 73.484 140.167,72.742 139.523,71.917 138.737 C 71.092 137.950,70.050 137.010,69.601 136.646 C 68.225 135.532,67.427 134.340,67.805 133.962 C 67.899 133.867,68.863 133.594,69.947 133.353 L 71.917 132.917 71.970 132.366 C 72.043 131.598,70.251 129.836,66.771 127.255 C 65.317 126.176,63.997 125.164,63.840 125.006 C 63.682 124.849,63.147 124.450,62.651 124.121 C 61.596 123.420,60.916 122.734,60.757 122.208 C 60.596 121.675,60.796 121.709,63.532 122.679 C 69.338 124.738,70.632 123.642,66.774 119.932 C 66.211 119.391,65.836 118.918,65.940 118.883 C 66.127 118.819,67.762 119.319,68.750 119.742 C 70.130 120.333,73.090 120.773,73.896 120.507 C 75.254 120.059,73.725 117.660,71.153 116.203 C 70.840 116.026,69.983 115.454,69.250 114.932 C 67.191 113.469,65.277 112.224,64.900 112.104 C 64.712 112.045,64.414 111.863,64.238 111.701 C 64.061 111.538,63.279 110.926,62.500 110.341 C 61.007 109.219,57.045 105.400,57.206 105.238 C 57.349 105.095,59.234 105.890,61.399 107.005 C 62.461 107.552,63.462 108.001,63.623 108.003 C 63.785 108.004,64.217 108.113,64.583 108.245 C 67.848 109.421,68.173 107.700,65.276 104.583 C 64.679 103.942,63.436 102.582,62.514 101.561 L 60.836 99.705 61.920 99.589 C 64.655 99.296,64.138 98.006,59.360 93.206 C 56.116 89.947,55.553 89.231,56.375 89.408 C 60.332 90.261,61.089 90.284,61.271 89.558 C 61.512 88.600,59.448 86.048,56.596 83.775 C 56.268 83.514,56.000 83.225,56.000 83.133 C 56.000 83.041,55.656 82.584,55.237 82.117 C 54.817 81.650,54.328 80.982,54.150 80.634 L 53.827 80.000 55.819 80.000 C 58.500 80.000,58.661 79.417,56.903 76.064 C 56.406 75.118,55.997 74.247,55.994 74.130 C 55.990 74.013,55.732 73.504,55.421 73.000 C 52.345 68.017,51.974 67.150,52.977 67.285 C 54.080 67.433,54.049 66.412,52.832 62.493 C 52.449 61.259,52.073 59.913,51.996 59.500 C 51.919 59.087,51.619 57.962,51.330 57.000 C 51.040 56.038,50.655 54.576,50.475 53.752 C 50.026 51.704,49.436 51.144,48.705 52.072 M330.036 86.737 C 329.660 87.563,329.350 89.115,329.172 91.069 C 328.976 93.215,328.343 96.639,327.926 97.813 C 327.553 98.862,327.581 99.500,328.000 99.500 C 328.800 99.500,327.013 103.350,325.834 104.167 C 325.495 104.401,325.153 105.417,325.199 106.051 L 325.250 106.750 326.167 106.801 C 327.288 106.864,327.474 107.019,327.064 107.550 C 326.891 107.774,326.286 108.556,325.719 109.288 C 325.151 110.021,324.525 110.912,324.327 111.268 C 324.129 111.625,323.834 112.067,323.670 112.250 C 322.980 113.023,322.674 114.057,322.934 114.736 C 323.063 115.072,323.916 115.076,325.906 114.750 C 328.226 114.370,328.118 114.665,324.653 118.188 C 321.994 120.891,321.333 121.763,321.333 122.571 C 321.333 123.542,323.298 123.582,325.626 122.659 C 326.383 122.359,327.053 122.164,327.114 122.225 C 327.451 122.562,323.211 126.692,320.844 128.333 C 319.490 129.272,316.527 132.491,316.391 133.170 C 316.152 134.366,316.914 134.417,319.254 133.360 C 321.713 132.248,321.175 133.006,317.552 135.756 C 312.360 139.695,312.681 140.917,318.667 140.008 C 319.171 139.931,320.626 139.559,321.900 139.181 C 323.174 138.803,324.249 138.526,324.289 138.566 C 324.426 138.703,322.737 140.251,321.411 141.203 C 320.681 141.727,319.483 142.607,318.750 143.159 C 318.017 143.710,317.342 144.166,317.250 144.171 C 316.966 144.188,314.701 146.397,314.597 146.759 C 314.361 147.578,314.803 147.754,316.975 147.706 C 318.076 147.681,319.017 147.725,319.065 147.804 C 319.310 148.201,316.122 150.502,313.251 151.999 C 310.077 153.654,307.125 156.107,306.903 157.274 C 306.600 158.860,307.900 158.981,312.116 157.760 C 318.694 155.854,320.283 156.404,314.500 158.585 C 313.629 158.913,312.488 159.404,311.965 159.674 C 311.442 159.945,310.917 160.167,310.798 160.167 C 309.987 160.170,306.099 163.824,305.576 165.076 C 304.848 166.818,306.533 167.003,310.000 165.561 C 312.565 164.494,314.004 164.113,314.608 164.343 L 315.009 164.495 314.687 165.123 C 314.112 166.240,311.529 168.167,310.605 168.167 C 310.353 168.167,307.309 169.506,305.583 170.376 C 303.193 171.581,302.533 172.675,303.917 173.141 C 304.684 173.400,309.643 173.302,311.083 173.000 C 313.663 172.458,316.171 172.476,315.557 173.032 C 315.033 173.506,311.177 175.276,309.332 175.889 C 303.609 177.792,299.333 180.261,299.333 181.663 C 299.333 183.050,300.645 183.013,305.155 181.500 C 309.159 180.157,309.641 180.077,309.254 180.825 C 308.879 181.550,306.874 183.523,305.827 184.198 C 305.326 184.520,304.729 184.969,304.500 185.194 C 303.998 185.689,299.873 188.833,299.726 188.833 C 299.610 188.833,296.414 186.556,296.111 186.257 C 295.798 185.948,293.816 184.630,292.977 184.172 C 291.986 183.631,288.754 181.428,288.023 180.796 C 287.715 180.529,287.303 180.247,287.106 180.169 C 286.524 179.936,283.910 177.780,284.124 177.709 C 284.361 177.630,287.241 178.836,288.437 179.515 C 288.906 179.782,289.385 180.000,289.500 180.000 C 289.615 180.000,290.360 180.261,291.157 180.579 C 294.467 181.904,296.363 181.334,295.168 179.375 L 294.838 178.833 295.377 178.833 C 295.674 178.833,296.825 178.954,297.936 179.103 C 300.165 179.401,300.865 179.276,300.967 178.562 C 301.026 178.148,299.192 176.167,298.749 176.167 C 298.498 176.167,295.773 174.801,292.224 172.896 C 291.477 172.495,290.764 172.164,290.641 172.161 C 290.262 172.152,285.512 169.333,285.161 168.909 C 284.817 168.494,286.909 168.657,289.417 169.240 C 293.110 170.100,296.000 170.159,296.000 169.375 C 296.000 168.416,292.541 165.555,290.119 164.509 C 286.314 162.867,282.030 160.545,283.167 160.742 C 284.748 161.015,287.108 161.178,288.833 161.133 C 290.984 161.077,291.190 160.927,290.551 159.877 C 289.980 158.938,287.167 156.167,286.786 156.167 C 286.502 156.167,281.923 152.688,282.045 152.566 C 282.075 152.536,283.108 152.582,284.341 152.667 C 287.876 152.911,287.834 152.914,287.830 152.375 C 287.820 151.172,286.773 149.764,283.342 146.338 L 280.917 143.917 283.000 143.917 L 285.083 143.917 285.133 143.486 C 285.201 142.906,283.967 141.446,282.333 140.174 C 281.646 139.639,280.863 138.968,280.594 138.684 L 280.104 138.167 281.760 138.152 C 286.528 138.110,286.373 137.266,280.764 132.746 C 279.671 131.866,278.434 130.843,278.014 130.472 L 277.250 129.798 278.691 129.917 C 280.402 130.059,280.529 129.926,280.100 128.450 C 279.876 127.680,278.000 124.405,277.643 124.160 C 276.626 123.465,275.386 118.443,275.155 114.083 C 274.948 110.175,274.524 108.597,273.760 108.890 C 273.315 109.061,273.162 109.776,272.975 112.569 C 272.554 118.864,272.090 120.390,269.574 123.753 C 268.137 125.674,268.291 126.992,269.854 126.156 C 270.519 125.800,270.486 126.108,269.741 127.219 C 268.714 128.749,268.766 129.032,270.113 129.250 C 271.822 129.526,271.591 130.011,268.423 132.806 C 263.640 137.025,261.814 139.696,263.435 140.103 C 264.173 140.288,267.098 140.006,268.120 139.651 C 269.214 139.271,271.000 138.827,271.000 138.935 C 271.000 138.974,270.456 139.357,269.792 139.784 C 267.891 141.008,264.481 144.534,264.121 145.649 C 263.643 147.129,264.182 147.487,266.040 146.923 L 266.830 146.684 266.553 147.106 C 266.401 147.338,265.883 147.803,265.401 148.139 C 263.865 149.212,261.305 151.186,260.557 151.875 C 258.465 153.804,260.926 154.325,264.786 152.771 C 266.725 151.990,268.667 151.602,268.667 151.996 C 268.667 152.760,264.601 155.738,263.076 156.090 C 261.021 156.565,256.211 159.726,255.183 161.277 C 253.850 163.290,255.200 163.776,259.250 162.739 C 262.138 161.999,263.167 161.843,263.167 162.143 C 263.167 162.317,261.419 163.605,260.454 164.141 C 258.175 165.407,256.594 166.335,255.417 167.095 C 254.683 167.568,253.809 168.083,253.474 168.239 C 252.624 168.635,249.882 171.331,249.736 171.915 C 249.486 172.909,251.776 173.175,254.667 172.489 C 255.446 172.304,256.421 172.086,256.833 172.004 C 257.620 171.849,259.348 171.285,259.917 170.999 C 261.680 170.111,266.500 168.974,266.500 169.447 C 266.500 169.820,264.528 171.201,263.083 171.838 C 259.730 173.316,257.455 174.748,255.792 176.425 C 253.828 178.405,254.810 179.120,258.417 178.334 C 263.375 177.254,263.781 177.304,262.242 178.797 C 261.161 179.846,254.060 184.167,253.417 184.167 C 253.305 184.167,252.940 184.352,252.607 184.578 C 252.274 184.804,251.199 185.452,250.218 186.019 C 249.237 186.585,248.296 187.177,248.126 187.335 C 247.957 187.493,247.540 187.764,247.201 187.936 C 245.776 188.660,242.000 192.120,242.000 192.701 C 242.000 193.973,248.423 193.997,252.083 192.739 C 253.000 192.424,254.125 192.060,254.583 191.930 C 255.042 191.801,256.504 191.274,257.833 190.759 C 260.259 189.820,262.705 189.096,263.057 189.213 C 263.160 189.248,262.759 189.627,262.164 190.057 C 261.570 190.486,260.803 191.064,260.460 191.343 C 260.118 191.621,259.593 191.955,259.294 192.086 C 258.995 192.217,258.219 192.682,257.570 193.120 C 256.920 193.558,255.345 194.620,254.070 195.480 C 246.531 200.561,242.449 205.171,245.492 205.166 C 246.435 205.164,247.087 204.961,250.364 203.647 C 251.384 203.237,251.418 203.246,251.011 203.817 C 250.217 204.933,250.942 205.141,253.099 204.417 C 253.782 204.188,254.455 204.000,254.596 204.000 C 254.737 204.000,255.180 203.851,255.580 203.668 C 256.474 203.261,259.263 202.449,259.499 202.527 C 260.348 202.810,257.605 204.657,254.667 205.781 C 254.071 206.009,252.721 206.574,251.667 207.037 C 250.612 207.500,249.400 208.010,248.972 208.170 C 245.784 209.364,240.903 213.760,241.033 215.320 L 241.083 215.917 242.167 215.889 C 243.000 215.868,243.958 215.626,246.312 214.841 C 249.787 213.682,249.703 213.686,248.918 214.714 C 247.392 216.712,249.296 216.903,254.250 215.247 C 255.442 214.849,256.679 214.478,257.000 214.422 L 257.583 214.320 256.833 214.999 C 256.421 215.373,255.324 216.047,254.395 216.498 C 253.466 216.948,252.604 217.416,252.478 217.537 C 252.353 217.658,251.838 218.016,251.333 218.333 C 248.614 220.043,247.047 222.643,248.258 223.437 C 249.202 224.056,253.321 223.280,256.204 221.940 C 262.095 219.203,261.617 219.405,261.322 219.780 C 261.191 219.947,260.915 220.236,260.709 220.422 C 260.502 220.608,260.333 220.821,260.333 220.896 C 260.333 220.970,259.651 221.755,258.818 222.640 C 256.225 225.394,255.820 226.829,257.556 227.111 C 258.741 227.304,261.788 226.161,264.095 224.659 C 264.651 224.296,265.189 224.000,265.290 224.000 C 265.391 224.000,266.186 223.663,267.057 223.250 C 269.513 222.087,269.673 222.181,268.826 224.295 C 268.430 225.283,268.329 225.766,268.368 226.489 L 268.417 227.417 269.269 227.466 C 270.121 227.516,271.378 227.076,272.267 226.418 L 272.618 226.159 272.730 228.954 C 272.913 233.484,272.980 233.917,273.600 234.585 C 273.827 234.830,274.126 235.205,274.266 235.417 C 275.609 237.467,278.053 236.058,278.026 233.250 C 278.020 232.608,277.986 230.040,277.951 227.542 L 277.888 223.000 278.505 223.000 C 279.144 223.000,280.000 222.485,280.000 222.101 C 280.000 221.766,280.982 219.833,281.153 219.833 C 281.456 219.833,282.281 220.658,283.258 221.940 C 285.292 224.606,288.395 227.500,289.219 227.500 C 289.462 227.500,289.290 227.765,288.504 228.605 C 286.617 230.623,286.032 231.785,286.764 232.066 C 287.683 232.418,292.218 231.998,297.167 231.101 C 303.863 229.887,306.738 229.691,306.576 230.458 C 306.523 230.710,306.441 231.100,306.395 231.325 C 306.348 231.550,306.059 232.162,305.752 232.686 C 305.445 233.210,305.227 233.671,305.267 233.712 C 305.307 233.752,305.081 234.152,304.765 234.601 C 303.634 236.204,303.289 236.863,303.208 237.579 L 303.127 238.304 304.074 238.423 C 307.315 238.828,310.656 237.745,314.469 235.055 C 318.433 232.257,320.059 231.167,320.265 231.167 C 320.828 231.167,320.789 232.447,320.167 234.390 C 319.125 237.643,319.638 238.229,322.612 237.180 C 323.967 236.702,327.401 234.611,328.067 233.858 C 328.918 232.898,328.914 232.876,328.916 238.860 C 328.917 243.592,328.931 243.824,329.260 244.267 C 330.116 245.419,331.562 245.759,333.503 245.263 C 335.251 244.817,335.240 244.841,335.307 241.264 L 335.365 238.203 336.343 238.600 C 338.241 239.372,340.731 239.910,342.125 239.849 C 342.737 239.823,342.516 238.493,341.818 238.000 C 341.633 237.870,340.338 235.440,340.336 235.219 C 340.334 235.074,340.732 235.047,341.829 235.119 C 343.787 235.245,343.820 235.171,342.877 232.708 C 342.742 232.354,343.204 232.469,345.685 233.406 L 348.083 234.312 348.131 235.739 L 348.180 237.167 349.413 237.167 C 350.954 237.167,350.979 237.214,350.166 238.605 C 349.106 240.418,349.305 240.581,352.417 240.448 C 354.745 240.349,355.607 240.139,358.301 239.013 C 361.395 237.721,361.453 237.723,360.823 239.105 C 360.635 239.519,360.503 240.059,360.532 240.304 L 360.583 240.750 362.125 240.727 C 362.973 240.715,363.667 240.762,363.667 240.832 C 363.667 241.143,363.117 242.181,362.342 243.333 C 361.426 244.695,361.295 245.241,361.851 245.386 C 362.430 245.538,366.156 244.844,367.438 244.346 L 368.635 243.881 368.693 246.872 L 368.750 249.862 369.211 250.259 C 370.515 251.380,373.091 251.442,374.211 250.378 C 375.221 249.418,375.227 249.380,375.098 244.333 C 374.955 238.722,374.972 238.650,376.166 239.730 C 377.362 240.810,381.203 242.860,382.662 243.197 C 384.454 243.611,384.747 242.797,383.833 239.943 C 382.804 236.731,383.351 236.122,385.685 237.879 C 386.199 238.267,387.174 239.003,387.852 239.516 C 391.919 242.595,394.885 243.901,398.292 244.112 L 400.000 244.217 400.000 242.768 L 400.000 241.318 399.191 240.117 C 398.046 238.418,397.366 237.025,397.304 236.250 L 397.250 235.583 398.625 235.583 L 400.001 235.583 400.000 225.878 L 400.000 216.172 399.125 215.733 C 396.913 214.622,394.853 212.573,395.523 212.149 C 396.067 211.804,397.500 211.974,397.500 212.383 C 397.500 213.097,398.409 213.388,399.625 213.062 L 400.000 212.961 400.000 206.847 C 400.000 202.314,399.948 200.682,399.800 200.533 C 399.644 200.378,399.644 200.333,399.800 200.333 C 399.951 200.333,400.000 199.211,400.000 195.784 L 400.000 191.235 398.046 189.659 C 395.183 187.350,394.029 186.000,394.918 186.000 C 395.252 186.000,398.578 186.994,399.792 187.456 C 399.951 187.517,400.000 187.081,400.000 185.605 L 400.000 183.675 399.542 183.440 C 398.854 183.087,395.517 181.738,393.253 180.897 C 390.860 180.009,388.745 179.029,388.404 178.652 C 387.921 178.119,390.077 178.134,393.083 178.687 C 393.725 178.805,395.525 178.904,397.083 178.909 L 399.917 178.917 399.965 177.832 C 400.014 176.741,399.633 176.167,398.861 176.167 C 398.767 176.167,397.991 175.834,397.137 175.428 C 396.282 175.022,394.830 174.361,393.908 173.959 C 392.987 173.557,391.886 172.990,391.462 172.698 C 391.037 172.406,390.624 172.167,390.543 172.167 C 389.882 172.167,388.844 170.218,389.393 170.009 C 389.810 169.850,391.847 170.180,392.227 170.467 C 393.785 171.644,398.074 172.463,398.501 171.665 C 399.345 170.089,392.214 164.167,389.473 164.167 C 388.809 164.167,385.680 162.598,385.901 162.377 C 386.228 162.050,388.459 162.440,391.918 163.429 C 394.234 164.091,396.709 164.287,397.012 163.833 C 397.936 162.449,394.932 159.741,388.857 156.479 C 386.484 155.206,384.665 153.741,384.927 153.317 C 384.980 153.230,385.915 153.181,387.025 153.206 C 389.074 153.251,389.500 153.119,389.500 152.438 C 389.500 152.014,386.251 149.286,384.313 148.083 C 381.970 146.629,378.899 143.685,380.125 144.069 C 387.394 146.347,389.820 146.580,389.971 145.014 C 390.046 144.234,387.907 142.187,385.031 140.283 C 384.296 139.797,383.167 138.681,383.167 138.440 C 383.167 138.314,383.810 138.559,385.131 139.190 C 388.363 140.731,388.501 138.242,385.314 135.903 C 384.869 135.576,384.362 135.128,384.189 134.907 C 383.766 134.370,381.131 132.174,380.904 132.170 C 380.677 132.166,376.833 128.215,376.833 127.987 C 376.833 127.766,377.840 127.951,378.914 128.369 C 379.960 128.776,381.809 128.947,382.304 128.682 C 383.209 128.198,382.483 126.938,379.702 124.167 C 377.294 121.766,376.500 120.807,376.500 120.301 C 376.500 119.959,376.396 119.958,378.572 120.331 C 381.289 120.796,381.795 120.275,380.583 118.262 C 380.262 117.729,380.000 117.233,380.000 117.160 C 380.000 117.087,379.674 116.645,379.275 116.178 C 377.986 114.667,376.613 112.654,376.768 112.500 C 376.850 112.419,377.329 112.329,377.833 112.301 L 378.750 112.250 378.799 111.583 C 378.848 110.912,378.131 109.471,377.248 108.465 C 375.914 106.947,375.266 105.000,376.095 105.000 C 376.372 105.000,376.400 104.539,376.173 103.686 C 375.501 101.157,375.154 99.528,374.998 98.167 C 374.562 94.372,374.466 93.737,374.199 92.933 C 373.722 91.496,372.333 91.806,372.333 93.349 C 372.333 93.988,371.169 99.842,370.651 101.811 C 370.162 103.667,368.505 107.532,367.748 108.583 C 365.975 111.044,366.081 111.604,368.377 111.927 C 369.483 112.082,369.535 112.427,368.723 114.219 C 367.994 115.829,368.218 115.516,364.250 120.463 C 360.313 125.371,360.405 125.239,359.988 126.559 L 359.628 127.702 359.970 128.044 C 360.394 128.468,362.560 128.120,363.733 127.439 C 364.720 126.867,367.134 125.832,367.466 125.840 C 368.052 125.853,366.301 127.156,362.730 129.366 C 358.879 131.749,357.286 133.159,357.364 134.114 L 357.417 134.750 359.083 134.728 C 360.222 134.713,361.374 134.564,362.718 134.259 C 363.801 134.013,364.758 133.836,364.845 133.865 C 365.031 133.927,363.051 136.167,362.810 136.167 C 362.720 136.167,362.006 136.710,361.224 137.375 C 358.485 139.700,357.915 140.156,357.738 140.161 C 357.640 140.164,357.147 140.560,356.643 141.042 C 356.140 141.523,355.077 142.530,354.282 143.279 C 350.997 146.377,352.574 147.014,358.938 145.161 C 360.952 144.574,362.167 144.375,362.167 144.633 C 362.167 145.003,359.232 146.907,356.544 148.282 C 352.636 150.280,351.667 151.006,351.667 151.933 C 351.667 152.553,352.196 152.710,354.051 152.643 L 355.721 152.583 355.998 153.083 C 356.338 153.696,357.361 153.830,358.700 153.438 L 359.547 153.189 358.815 153.939 C 357.530 155.256,355.717 156.558,355.468 156.343 C 355.348 156.239,354.554 155.625,353.703 154.979 C 352.852 154.333,351.932 153.600,351.660 153.351 C 351.387 153.102,350.861 152.715,350.490 152.491 C 349.406 151.835,348.301 151.002,346.743 149.667 C 344.467 147.716,344.366 147.620,344.750 147.772 C 345.768 148.175,347.796 148.040,348.030 147.553 L 348.256 147.083 350.046 147.145 C 352.012 147.212,352.337 147.099,352.327 146.355 C 352.314 145.391,351.834 144.948,349.583 143.824 C 347.740 142.904,345.089 141.428,344.044 140.741 C 343.564 140.425,343.128 140.167,343.075 140.167 C 342.879 140.167,341.833 139.289,341.833 139.124 C 341.833 138.893,343.081 139.076,344.833 139.564 C 349.359 140.825,351.998 140.761,351.283 139.407 C 350.894 138.671,348.538 136.439,345.917 134.324 C 344.633 133.289,343.558 132.380,343.528 132.304 C 343.497 132.229,343.395 132.167,343.301 132.167 C 343.021 132.167,340.633 130.080,339.775 129.086 C 338.856 128.022,338.825 128.031,341.334 128.603 C 342.635 128.900,343.785 129.047,344.917 129.062 L 346.583 129.083 346.637 128.528 C 346.727 127.586,344.059 125.211,341.463 123.923 C 340.939 123.663,340.375 123.330,340.211 123.183 C 340.046 123.037,339.388 122.561,338.747 122.125 C 335.237 119.739,335.689 119.531,339.920 121.588 C 343.870 123.509,345.098 123.079,343.742 120.250 C 343.320 119.369,341.868 117.366,340.843 116.250 C 340.506 115.883,340.030 115.283,339.786 114.917 C 339.541 114.550,338.707 113.509,337.932 112.603 C 337.158 111.697,336.344 110.609,336.123 110.186 C 335.902 109.763,335.476 108.947,335.176 108.373 C 334.472 107.025,334.552 106.582,335.543 106.337 C 337.896 105.756,337.952 105.640,336.750 103.816 C 336.337 103.190,336.000 102.610,336.000 102.527 C 336.000 102.444,335.622 101.691,335.160 100.854 C 333.826 98.436,332.551 93.859,332.018 89.572 C 331.669 86.772,330.671 85.344,330.036 86.737 M35.413 108.010 C 35.353 108.202,35.347 108.403,35.401 108.457 C 35.456 108.511,35.500 108.437,35.500 108.292 C 35.500 108.147,35.590 107.998,35.700 107.961 C 35.846 107.912,35.849 107.863,35.712 107.778 C 35.603 107.711,35.478 107.808,35.413 108.010 M33.608 112.745 C 33.557 112.879,33.586 113.034,33.674 113.088 C 33.762 113.142,33.833 113.151,33.833 113.107 C 33.833 113.063,33.879 112.909,33.934 112.764 C 33.990 112.619,33.961 112.500,33.869 112.500 C 33.777 112.500,33.660 112.610,33.608 112.745 M97.083 185.760 C 96.533 186.262,95.502 187.060,94.792 187.535 C 94.081 188.010,93.500 188.471,93.500 188.559 C 93.500 188.646,93.363 188.594,93.195 188.442 C 93.028 188.291,92.831 188.167,92.759 188.167 C 92.687 188.167,92.371 187.942,92.058 187.667 L 91.488 187.167 91.984 187.167 C 92.670 187.167,94.648 186.431,96.299 185.561 C 98.113 184.606,98.298 184.653,97.083 185.760 M100.742 189.542 C 99.323 191.122,98.688 191.740,98.096 192.121 C 97.737 192.352,97.099 192.860,96.679 193.250 C 96.260 193.640,95.478 194.265,94.942 194.638 L 93.968 195.317 92.658 194.505 C 90.761 193.328,88.590 192.167,88.289 192.167 C 88.145 192.167,88.003 192.106,87.972 192.031 C 87.942 191.956,87.354 191.577,86.667 191.188 C 83.547 189.423,84.448 189.412,89.417 191.154 C 92.612 192.274,95.413 193.167,95.734 193.167 C 96.315 193.167,96.074 191.683,95.335 190.708 L 94.672 189.833 96.816 189.833 C 98.691 189.833,99.092 189.782,100.021 189.425 C 100.605 189.200,101.116 189.013,101.156 189.008 C 101.196 189.004,101.010 189.244,100.742 189.542 M289.583 191.574 C 290.775 191.798,292.551 192.107,293.530 192.262 L 295.311 192.542 294.213 193.896 C 293.609 194.641,293.062 195.272,292.996 195.298 C 292.701 195.418,286.833 192.047,286.833 191.759 C 286.833 191.723,286.788 191.575,286.732 191.430 C 286.592 191.066,286.986 191.085,289.583 191.574 M303.918 195.332 C 303.679 195.582,303.280 195.890,303.033 196.017 C 302.646 196.216,301.125 197.308,299.705 198.405 L 299.289 198.727 298.228 198.155 C 296.910 197.445,296.885 197.535,298.625 196.711 C 302.594 194.831,304.998 194.205,303.918 195.332 M294.570 206.311 C 294.845 206.757,294.054 206.996,293.666 206.583 L 293.275 206.167 293.878 206.167 C 294.209 206.167,294.520 206.232,294.570 206.311 M308.376 206.566 C 308.902 206.966,308.377 207.792,306.973 208.772 C 305.635 209.706,302.549 211.381,302.365 211.273 C 302.162 211.154,298.611 209.473,297.833 209.128 L 297.083 208.795 298.000 208.474 C 298.778 208.201,299.022 208.182,299.612 208.344 C 300.388 208.558,300.667 208.466,300.667 207.997 C 300.667 207.357,302.619 206.944,303.771 207.340 C 305.505 207.937,306.500 207.740,306.500 206.800 C 306.500 206.268,307.774 206.109,308.376 206.566 M302.834 216.875 C 302.835 216.990,302.216 217.667,301.459 218.381 L 300.083 219.678 300.034 218.407 C 300.004 217.613,300.059 217.047,300.180 216.901 C 300.439 216.589,302.833 216.565,302.834 216.875 M296.006 218.924 C 296.507 219.432,297.235 220.036,297.625 220.264 C 298.493 220.775,298.515 220.666,297.395 221.409 C 296.395 222.073,296.429 222.079,295.923 221.167 C 295.796 220.938,295.430 220.506,295.109 220.207 C 294.788 219.908,294.291 219.368,294.004 219.006 L 293.483 218.347 294.033 218.189 C 294.950 217.924,295.061 217.966,296.006 218.924 M97.549 223.771 C 97.864 224.086,94.224 228.167,93.629 228.167 C 93.393 228.167,93.006 227.745,92.611 227.058 C 92.543 226.940,92.842 226.668,93.375 226.361 C 93.856 226.084,94.691 225.496,95.230 225.054 C 96.545 223.975,97.323 223.545,97.549 223.771 M292.562 224.479 C 292.828 224.584,292.695 224.764,291.650 225.708 C 290.215 227.005,290.277 227.003,290.605 225.743 C 290.973 224.333,291.433 224.036,292.562 224.479 " stroke="none" fill="#34648c" fill-rule="evenodd"></path><path id="path3" d="M20.583 226.254 C 20.492 226.288,20.090 226.399,19.692 226.502 C 19.293 226.605,18.995 226.717,19.030 226.752 C 19.064 226.787,19.616 226.676,20.255 226.506 C 20.894 226.336,21.267 226.196,21.083 226.195 C 20.900 226.194,20.675 226.221,20.583 226.254 M22.784 227.958 C 22.088 229.085,21.452 230.253,21.628 230.083 C 21.851 229.868,23.340 227.333,23.244 227.333 C 23.204 227.333,22.997 227.615,22.784 227.958 M57.942 228.882 L 57.300 229.750 57.978 229.000 C 58.351 228.588,58.739 228.271,58.840 228.296 C 58.942 228.321,58.977 228.265,58.919 228.171 C 58.742 227.884,58.608 227.981,57.942 228.882 M65.501 228.597 C 65.501 228.681,65.695 228.975,65.931 229.250 L 66.361 229.750 65.984 229.167 C 65.502 228.418,65.500 228.416,65.501 228.597 M37.904 229.610 C 37.890 230.255,37.955 230.239,38.152 229.550 C 38.250 229.209,38.235 229.056,38.105 229.056 C 38.002 229.056,37.911 229.306,37.904 229.610 M35.595 229.922 C 34.684 230.329,33.866 230.734,33.776 230.824 C 33.630 230.970,37.319 229.386,37.486 229.231 C 37.698 229.035,37.066 229.266,35.595 229.922 M61.853 229.515 C 62.069 229.652,63.470 229.738,63.319 229.606 C 63.281 229.572,62.884 229.505,62.436 229.457 C 61.938 229.403,61.711 229.426,61.853 229.515 M46.131 230.875 C 45.728 231.265,45.627 231.388,45.907 231.150 C 46.187 230.912,46.602 230.593,46.829 230.442 C 47.055 230.291,47.156 230.167,47.053 230.167 C 46.950 230.167,46.535 230.485,46.131 230.875 M37.574 231.268 C 37.343 233.113,37.809 235.862,38.492 236.692 C 38.754 237.009,38.738 236.925,38.412 236.250 C 37.886 235.165,37.601 233.244,37.724 231.625 C 37.839 230.127,37.744 229.903,37.574 231.268 M54.792 234.917 C 54.839 236.292,54.905 237.448,54.939 237.486 C 55.042 237.603,54.966 234.822,54.833 233.583 C 54.754 232.856,54.739 233.358,54.792 234.917 M42.500 234.417 C 41.817 235.104,41.296 235.667,41.342 235.667 C 41.388 235.667,41.984 235.104,42.667 234.417 C 43.350 233.729,43.871 233.167,43.825 233.167 C 43.779 233.167,43.183 233.729,42.500 234.417 M70.750 233.326 C 70.933 233.409,71.221 233.482,71.389 233.488 C 71.557 233.495,72.007 233.752,72.389 234.060 C 73.039 234.584,74.185 235.350,74.000 235.136 C 73.520 234.582,71.589 233.359,71.063 233.276 C 70.610 233.205,70.516 233.220,70.750 233.326 M315.866 234.071 C 314.658 234.955,314.187 235.351,314.667 235.078 C 315.102 234.830,317.167 233.310,317.167 233.237 C 317.167 233.122,317.134 233.143,315.866 234.071 M327.833 234.046 C 327.512 234.342,327.062 234.717,326.833 234.880 C 326.444 235.157,326.443 235.164,326.806 234.991 C 327.021 234.889,327.471 234.560,327.806 234.260 C 328.142 233.960,328.529 233.673,328.667 233.621 C 328.889 233.537,328.889 233.525,328.667 233.518 C 328.529 233.513,328.154 233.751,327.833 234.046 M24.667 234.021 C 23.003 234.445,20.853 234.606,20.323 234.347 C 19.939 234.159,19.934 234.162,20.240 234.407 C 20.798 234.854,24.953 234.436,25.990 233.829 C 26.349 233.619,26.113 233.653,24.667 234.021 M346.423 233.809 C 346.511 233.890,346.955 234.079,347.410 234.230 C 347.865 234.380,348.165 234.438,348.077 234.357 C 347.989 234.277,347.545 234.088,347.090 233.937 C 346.635 233.786,346.335 233.729,346.423 233.809 M278.000 234.266 C 278.000 234.443,277.846 234.887,277.659 235.252 C 277.323 235.905,277.323 235.909,277.652 235.500 C 278.006 235.060,278.267 234.211,278.099 234.044 C 278.045 233.989,278.000 234.089,278.000 234.266 M273.309 234.417 C 273.412 234.600,273.735 235.012,274.026 235.333 C 274.424 235.772,274.488 235.807,274.284 235.473 C 273.949 234.928,273.041 233.944,273.309 234.417 M321.621 237.474 C 320.845 237.686,320.556 237.699,320.121 237.540 C 319.634 237.362,319.614 237.367,319.907 237.588 C 320.383 237.949,322.326 237.750,322.596 237.313 C 322.646 237.232,322.663 237.177,322.635 237.189 C 322.607 237.201,322.150 237.329,321.621 237.474 M349.328 237.287 C 350.040 237.323,350.635 237.435,350.716 237.550 C 350.817 237.691,350.839 237.677,350.791 237.500 C 350.738 237.306,350.428 237.247,349.403 237.238 L 348.083 237.225 349.328 237.287 M385.014 237.548 C 385.052 237.575,385.383 237.805,385.750 238.060 L 386.417 238.524 385.840 238.012 C 385.522 237.730,385.191 237.500,385.104 237.500 C 385.016 237.500,384.976 237.522,385.014 237.548 M308.584 238.022 C 307.115 238.413,304.643 238.585,303.688 238.363 C 303.132 238.233,303.006 238.239,303.155 238.388 C 303.642 238.875,308.887 238.439,309.833 237.832 C 310.160 237.623,309.985 237.649,308.584 238.022 M359.917 238.351 C 359.458 238.536,358.933 238.760,358.750 238.848 L 358.417 239.009 358.750 238.932 C 359.350 238.793,361.256 238.017,361.000 238.016 C 360.863 238.016,360.375 238.167,359.917 238.351 M335.333 238.271 C 335.333 238.387,336.869 239.016,337.024 238.964 C 337.101 238.938,336.752 238.755,336.248 238.557 C 335.745 238.359,335.333 238.231,335.333 238.271 M113.929 239.151 C 114.010 239.969,114.381 241.000,114.593 241.000 C 114.640 241.000,114.586 240.831,114.473 240.625 C 114.361 240.419,114.172 239.800,114.054 239.250 L 113.839 238.250 113.929 239.151 M114.938 241.159 C 115.389 241.639,117.449 241.736,118.167 241.310 C 118.325 241.217,118.233 241.206,117.917 241.282 C 117.135 241.469,115.622 241.409,115.164 241.173 C 114.871 241.022,114.805 241.018,114.938 241.159 M378.464 241.427 C 379.055 241.841,381.515 243.040,381.600 242.956 C 381.642 242.913,381.299 242.716,380.836 242.517 C 380.374 242.318,379.619 241.933,379.157 241.661 C 378.265 241.135,377.845 240.993,378.464 241.427 M390.252 241.300 C 390.482 241.556,393.034 243.001,393.246 242.996 C 393.340 242.994,392.967 242.750,392.417 242.453 C 391.867 242.156,391.117 241.733,390.750 241.513 C 390.383 241.293,390.159 241.197,390.252 241.300 M362.188 243.301 C 361.214 244.785,361.124 245.262,361.773 245.509 C 362.015 245.601,362.249 245.640,362.293 245.596 C 362.337 245.552,362.176 245.467,361.936 245.407 C 361.336 245.256,361.371 244.772,362.056 243.748 C 363.021 242.306,363.207 242.000,363.124 242.000 C 363.079 242.000,362.658 242.586,362.188 243.301 M54.793 242.602 C 54.733 242.887,54.477 243.374,54.223 243.685 C 53.852 244.140,53.837 244.185,54.148 243.917 C 54.636 243.496,55.038 242.729,54.961 242.364 C 54.926 242.197,54.858 242.293,54.793 242.602 M329.870 245.059 C 330.576 245.708,332.686 245.841,333.917 245.315 C 334.120 245.228,333.990 245.220,333.583 245.294 C 332.213 245.546,330.530 245.416,329.952 245.015 L 329.417 244.642 329.870 245.059 M363.083 245.333 L 362.417 245.453 363.000 245.457 C 363.321 245.459,363.808 245.403,364.083 245.333 C 364.761 245.161,364.047 245.161,363.083 245.333 M374.242 250.375 L 373.583 251.083 374.292 250.425 C 374.950 249.812,375.077 249.667,374.950 249.667 C 374.923 249.667,374.605 249.985,374.242 250.375 M368.991 250.219 C 369.257 250.562,370.041 251.003,370.367 250.993 C 370.486 250.990,370.323 250.874,370.005 250.736 C 369.687 250.598,369.276 250.357,369.091 250.201 C 368.771 249.930,368.767 249.931,368.991 250.219 " stroke="none" fill="#58b0c4" fill-rule="evenodd"></path><path id="path4" d="" stroke="none" fill="#5864c8" fill-rule="evenodd"></path></g></svg>