<?xml version="1.0" standalone="no"?>
<!DOCTYPE svg PUBLIC "-//W3C//DTD SVG 20010904//EN"
 "http://www.w3.org/TR/2001/REC-SVG-20010904/DTD/svg10.dtd">
<svg version="1.0" xmlns="http://www.w3.org/2000/svg"
 width="2500.000000pt" height="1600.000000pt" viewBox="0 0 2500.000000 1600.000000"
 preserveAspectRatio="xMidYMid meet">
<metadata>
Created by potrace 1.15, written by Peter Selinger 2001-2017
</metadata>
<g transform="translate(0.000000,1600.000000) scale(0.100000,-0.100000)"
fill="#000000" stroke="none">
<path d="M3058 12753 c-42 -48 -53 -107 -73 -383 -39 -536 -60 -609 -255 -880
-105 -146 -150 -226 -150 -267 0 -60 33 -66 140 -27 39 15 73 24 77 20 10 -10
-41 -75 -158 -200 -201 -216 -289 -339 -289 -406 0 -74 44 -78 220 -17 69 24
131 42 138 40 6 -3 12 0 12 6 0 11 67 27 76 18 8 -7 -107 -128 -117 -122 -4 3
-13 -3 -18 -14 -6 -10 -78 -78 -159 -150 -206 -180 -249 -233 -220 -268 10
-12 33 -14 123 -10 60 2 117 7 125 11 25 10 151 25 165 19 46 -17 18 -88 -75
-187 -74 -79 -207 -189 -220 -181 -4 3 -10 -1 -13 -9 -3 -8 -50 -44 -104 -82
-238 -163 -375 -282 -388 -335 -4 -18 -1 -31 10 -43 26 -26 147 -22 242 9 52
16 79 21 84 14 5 -8 9 -8 13 0 12 18 24 13 38 -16 19 -39 79 -42 200 -9 146
41 152 34 46 -50 -107 -85 -198 -181 -198 -210 0 -43 39 -58 133 -51 l82 7
-33 -29 c-19 -16 -84 -55 -145 -86 -62 -32 -160 -84 -220 -117 -59 -32 -112
-56 -117 -53 -6 3 -15 -5 -21 -19 -11 -24 -27 -32 -94 -54 -17 -5 -68 -35
-113 -66 -46 -31 -88 -56 -93 -56 -17 0 -134 -96 -179 -147 -40 -46 -53 -94
-29 -109 30 -18 171 -3 320 35 254 65 488 91 557 62 71 -30 27 -86 -153 -190
-118 -69 -461 -242 -473 -239 -4 2 -14 -3 -22 -10 -8 -7 -48 -31 -87 -53 -52
-28 -73 -45 -73 -59 0 -22 28 -40 62 -40 13 0 28 -4 34 -9 5 -4 56 -4 114 1
117 10 188 4 197 -18 3 -8 -17 -40 -46 -75 -98 -117 -54 -132 230 -75 234 46
270 50 293 33 50 -37 -51 -103 -494 -327 -440 -222 -491 -256 -476 -316 9 -35
49 -47 125 -39 48 5 62 4 56 -5 -11 -19 -177 -123 -410 -260 -346 -203 -530
-327 -649 -440 -65 -62 -86 -95 -86 -138 0 -43 41 -57 165 -56 122 1 218 19
447 83 198 56 268 69 268 52 0 -11 -13 -20 -163 -112 -119 -72 -197 -147 -197
-188 0 -27 5 -31 38 -40 40 -11 178 -16 202 -8 8 3 87 17 175 31 150 24 372
36 388 20 3 -3 3 -12 0 -20 -8 -22 -142 -118 -228 -165 -176 -94 -345 -222
-345 -261 0 -9 11 -30 25 -47 l26 -30 -28 -14 c-15 -8 -77 -33 -136 -57 -290
-115 -545 -280 -756 -489 -147 -146 -180 -212 -124 -248 43 -28 209 -30 363
-4 85 15 126 18 128 11 3 -7 9 -5 16 4 17 25 433 136 504 136 24 0 16 -11 -80
-105 -103 -100 -124 -132 -116 -172 3 -16 14 -18 88 -17 68 0 109 8 210 38
183 56 288 57 298 4 4 -23 -115 -80 -358 -169 -315 -115 -486 -184 -637 -258
-80 -39 -143 -65 -143 -58 0 7 -10 0 -23 -14 -12 -15 -56 -48 -97 -74 -229
-145 -428 -350 -418 -432 3 -26 7 -28 51 -31 26 -2 123 11 215 29 180 34 293
42 313 22 10 -10 7 -24 -15 -67 -16 -32 -26 -66 -24 -83 3 -27 6 -28 60 -31
55 -3 148 11 293 42 122 27 235 18 235 -18 0 -45 -127 -103 -475 -218 -355
-118 -459 -159 -547 -218 -127 -85 -118 -68 -118 -225 l0 -137 63 7 c84 9 171
29 302 70 251 78 463 111 496 78 17 -17 -1 -36 -118 -129 -155 -124 -237 -240
-231 -326 6 -89 84 -88 346 1 99 33 221 72 273 86 103 28 259 45 259 28 0 -13
-76 -84 -170 -157 -95 -75 -197 -173 -216 -208 -8 -15 -14 -44 -14 -66 0 -21
-4 -42 -10 -48 -6 -6 16 -10 58 -12 52 -2 107 7 250 43 183 45 232 53 232 36
0 -5 -21 -37 -46 -72 -89 -120 -224 -385 -224 -438 0 -69 208 -49 500 49 138
46 233 85 486 198 165 74 156 73 138 15 -46 -150 -14 -415 55 -452 40 -22 87
13 296 219 176 173 218 210 227 198 1 -2 4 -179 7 -393 7 -447 2 -424 98 -472
67 -32 179 -43 253 -23 54 15 104 63 119 115 14 51 14 199 0 437 l-11 188 79
88 c44 48 99 112 124 142 l44 56 40 -23 c22 -12 50 -23 63 -23 13 0 44 -11 70
-25 50 -27 113 -33 130 -13 6 7 17 46 25 86 9 41 18 76 20 78 2 3 41 -49 87
-115 122 -179 236 -276 349 -297 18 -4 65 -31 105 -60 81 -62 152 -92 249
-106 97 -13 126 -2 159 65 30 61 54 142 63 212 10 78 11 79 96 58 63 -15 120
-18 399 -18 l325 0 75 37 c41 20 94 40 118 44 40 6 42 5 42 -18 0 -72 60 -79
235 -28 123 36 218 49 229 31 4 -6 -6 -35 -23 -65 -39 -68 -41 -119 -6 -142
17 -11 34 -14 57 -9 57 12 162 61 266 124 55 33 106 62 112 63 7 2 12 -16 13
-48 1 -28 8 -59 16 -68 17 -21 84 -21 101 0 8 8 22 20 33 25 19 11 19 5 16
-243 -4 -284 -1 -303 59 -340 51 -31 153 -30 210 2 62 35 65 52 57 333 -3 144
-2 247 3 255 8 12 15 11 40 -2 66 -34 116 -14 146 59 8 19 20 35 27 35 6 0 73
-29 148 -64 160 -76 201 -89 261 -84 47 3 50 7 65 81 3 15 10 27 16 27 5 0 53
-18 106 -41 128 -54 195 -68 231 -48 39 22 38 40 -8 98 l-41 51 26 10 c15 6
32 10 40 10 18 0 27 28 15 51 -6 10 -46 60 -90 111 -44 50 -80 96 -80 101 0
21 87 -4 280 -82 223 -89 286 -104 382 -91 79 11 102 35 93 91 l-7 38 34 -10
c108 -32 333 -58 372 -43 21 8 20 43 -1 66 -9 10 -14 21 -11 24 3 2 59 -4 125
-16 151 -25 218 -26 263 -1 28 15 36 25 38 53 7 76 -81 132 -361 227 -231 79
-339 122 -462 183 -104 52 -165 92 -165 109 0 25 139 3 318 -51 167 -49 263
-70 330 -70 57 0 67 3 93 29 21 21 29 39 29 64 0 41 16 49 125 67 80 12 170
52 186 82 19 35 2 68 -46 89 -24 11 -126 39 -227 63 -432 103 -612 171 -1092
413 l-100 50 84 7 c101 9 128 19 139 50 l10 24 93 -20 c110 -23 214 -27 246
-9 20 11 23 19 20 49 -3 21 -8 45 -13 55 -7 18 -6 18 31 1 85 -37 146 -54 207
-57 56 -2 68 1 106 28 85 59 100 66 177 80 86 17 104 27 104 60 0 40 -63 77
-240 140 -470 168 -1100 541 -1160 686 -21 50 -10 53 208 59 108 3 203 9 210
13 18 12 15 64 -5 76 -15 9 -12 10 15 11 18 0 48 7 67 14 27 12 35 21 35 40 0
27 -25 45 -99 71 l-36 13 35 5 c19 3 96 8 170 11 157 6 213 20 218 54 6 40
-26 61 -147 98 -319 97 -406 129 -547 199 -143 71 -243 136 -252 163 -3 9 18
12 81 12 77 0 88 3 116 26 17 14 46 27 65 29 18 1 47 12 62 23 27 19 35 20
119 10 112 -13 168 1 173 43 4 36 -18 52 -148 102 -136 53 -315 132 -349 153
l-23 16 31 19 c35 21 40 48 14 72 -10 8 -56 32 -103 52 -121 53 -204 104 -288
177 l-74 63 86 6 c71 5 91 10 110 28 17 16 43 25 91 31 63 8 105 29 105 54 0
5 -11 22 -26 37 l-25 26 118 -5 c110 -4 120 -3 145 18 46 36 34 67 -42 105
-19 10 -104 46 -189 81 -156 65 -241 108 -241 123 0 5 7 14 15 21 35 29 15 56
-125 166 -100 78 -186 160 -221 211 -16 23 -29 44 -29 47 0 2 13 1 28 -4 16
-4 65 -11 110 -15 82 -7 82 -7 117 24 28 24 45 31 78 31 86 0 125 49 70 88
-15 11 -73 44 -128 73 -159 84 -282 176 -262 196 4 3 32 10 62 14 37 5 65 16
86 33 17 15 43 26 59 26 37 0 60 9 60 25 0 6 -59 43 -130 81 -72 38 -143 79
-157 90 l-27 21 56 17 c64 18 105 47 94 65 -5 7 -51 44 -104 84 -112 82 -204
166 -196 178 3 5 14 9 25 9 24 0 26 36 3 69 -20 28 -11 36 52 46 24 3 46 11
50 16 13 22 -7 56 -48 78 -76 42 -108 70 -108 96 0 13 -20 53 -45 89 -25 37
-45 70 -45 76 0 5 8 25 17 45 16 34 16 36 -10 92 -32 69 -42 110 -62 267 -17
125 -27 156 -49 156 -32 0 -38 -20 -76 -258 -11 -68 -33 -164 -50 -213 -33
-98 -35 -120 -20 -150 9 -17 2 -28 -47 -80 -31 -33 -88 -81 -125 -105 -76 -51
-81 -56 -72 -77 6 -17 25 -22 116 -32 38 -4 55 -10 52 -18 -7 -19 -105 -87
-221 -153 -59 -34 -116 -73 -126 -87 -27 -35 -10 -62 45 -71 24 -4 54 -14 67
-23 19 -12 39 -14 94 -9 l71 6 -20 -21 c-30 -34 -131 -102 -222 -150 -120 -63
-142 -88 -106 -123 11 -12 36 -16 94 -16 43 0 81 -4 85 -9 8 -14 -120 -90
-270 -162 -174 -83 -202 -111 -157 -152 14 -13 39 -17 104 -17 64 0 89 -4 98
-15 18 -22 82 -19 189 11 51 14 95 23 97 21 3 -2 -26 -33 -64 -68 -78 -72
-179 -133 -315 -190 -145 -61 -182 -82 -185 -105 -4 -25 22 -49 72 -66 22 -7
42 -20 46 -28 25 -53 27 -55 91 -63 88 -11 176 -13 224 -5 l40 7 -59 -52 c-96
-86 -289 -219 -489 -339 -103 -61 -194 -120 -203 -129 -21 -24 -10 -54 25 -69
26 -10 95 -1 178 25 6 2 22 -4 35 -15 13 -10 35 -20 48 -22 20 -2 13 -8 -35
-25 -92 -34 -226 -71 -337 -93 -55 -11 -104 -22 -109 -26 -5 -3 -9 -18 -9 -34
0 -42 35 -61 107 -62 32 0 70 -2 85 -5 26 -4 27 -6 12 -28 -13 -20 -13 -24 1
-39 9 -8 35 -20 58 -26 46 -12 50 -14 87 -35 24 -14 117 -14 188 1 l23 5 -21
-29 c-12 -16 -20 -38 -18 -48 4 -21 54 -40 133 -50 l50 -6 -58 -54 c-71 -66
-174 -136 -304 -207 -101 -55 -120 -79 -93 -113 15 -17 122 -19 169 -3 72 25
44 -24 -48 -86 -112 -74 -816 -403 -841 -393 -4 2 -35 37 -68 79 l-60 76 136
7 c74 3 168 6 208 6 91 0 124 11 124 43 0 14 -9 36 -21 51 -28 36 -184 137
-377 245 -89 50 -193 110 -230 133 -56 36 -63 44 -44 46 34 5 142 -30 362
-118 336 -134 442 -163 457 -124 17 45 -70 194 -178 302 -117 119 -237 192
-529 323 -193 87 -196 88 -250 153 -30 35 -70 77 -88 91 -18 15 -31 29 -29 31
2 2 50 -6 108 -18 139 -28 320 -31 367 -5 28 15 32 23 32 58 0 35 -6 47 -53
92 -29 29 -77 68 -107 88 -30 20 -127 84 -215 141 -135 89 -355 265 -355 285
0 10 171 -7 275 -28 55 -11 152 -33 215 -49 182 -46 256 -55 285 -36 37 24 33
68 -12 145 -70 119 -203 246 -553 531 -312 253 -503 429 -535 490 -20 39 -11
45 138 78 70 16 130 31 133 35 35 34 -103 172 -371 371 -243 181 -316 244
-332 285 -10 29 -10 31 11 31 12 0 89 -23 171 -51 225 -76 335 -78 335 -8 0
12 -41 64 -100 124 -55 58 -100 110 -100 116 0 17 54 4 173 -41 99 -37 231
-70 280 -70 13 0 38 5 56 11 26 9 31 16 31 43 0 20 -11 44 -31 69 -42 51 -214
178 -474 350 -121 80 -256 174 -300 210 -112 90 -294 281 -273 285 22 4 128
-38 260 -104 181 -90 321 -127 356 -92 38 38 0 103 -161 278 -152 166 -227
252 -227 261 0 3 29 10 65 14 99 10 112 33 71 120 -30 63 -76 116 -253 288
-136 133 -202 211 -190 223 3 3 66 -6 140 -20 146 -29 184 -27 193 9 11 44
-35 107 -180 250 -167 164 -241 246 -267 297 -10 21 -19 40 -19 43 0 3 51 5
114 5 149 0 163 12 135 115 -14 52 -107 236 -203 403 -98 171 -136 247 -136
272 0 18 4 20 39 14 33 -5 39 -3 44 16 10 39 -11 132 -93 406 -44 148 -91 321
-106 384 -34 152 -57 187 -96 143z m3070 -8315 c-19 -28 -90 -86 -192 -156
-43 -30 -81 -62 -83 -72 -4 -16 -12 -13 -57 23 -28 23 -62 50 -76 59 l-25 17
42 0 c51 1 148 35 285 101 56 27 107 50 112 50 5 0 2 -10 -6 -22z m147 -319
c-86 -88 -248 -225 -336 -285 l-66 -46 -49 30 c-27 16 -121 69 -209 117 -211
115 -286 159 -315 185 l-25 21 53 -6 c53 -6 178 -45 480 -150 89 -31 169 -54
177 -51 38 14 6 103 -63 179 l-26 27 140 0 c123 0 149 3 210 24 38 14 76 25
84 25 8 1 -17 -31 -55 -70z m-171 -2098 c18 -28 -82 -149 -215 -262 l-46 -39
-36 54 -36 54 31 13 c17 7 68 40 112 73 152 115 177 129 190 107z"/>
<path d="M20626 10558 c-24 -64 -34 -120 -46 -258 -13 -148 -40 -287 -75 -389
-31 -92 -32 -121 -5 -121 25 0 35 -36 21 -73 -6 -15 -49 -84 -96 -152 -88
-130 -99 -153 -93 -201 3 -27 7 -29 48 -32 25 -1 56 -5 68 -8 23 -5 23 -5 7
-32 -10 -15 -60 -83 -111 -152 -148 -200 -177 -255 -158 -304 8 -20 59 -21
179 -1 113 19 105 19 105 -8 0 -36 -42 -88 -197 -242 -172 -171 -216 -247
-161 -276 35 -19 144 -4 231 30 86 34 107 38 107 17 0 -38 -110 -150 -305
-311 -178 -147 -269 -231 -315 -289 -47 -62 -60 -106 -35 -126 18 -15 40 -9
193 55 35 14 68 25 74 23 21 -7 -55 -79 -212 -198 -175 -133 -223 -184 -218
-227 9 -77 143 -71 461 21 87 25 162 46 167 46 47 0 -62 -103 -264 -250 -313
-227 -352 -264 -321 -307 11 -15 30 -18 141 -18 97 0 128 -3 132 -13 2 -8 -18
-35 -45 -60 -49 -47 -136 -102 -348 -221 -262 -147 -412 -298 -361 -366 22
-30 108 -24 272 21 208 55 293 74 356 76 63 2 77 -4 59 -26 -16 -19 -72 -45
-222 -101 -235 -90 -339 -154 -464 -286 -81 -86 -111 -144 -91 -174 12 -17 24
-20 82 -19 60 1 87 8 204 57 148 61 236 82 275 67 30 -11 30 -11 5 -59 -39
-77 -130 -135 -360 -231 -153 -64 -261 -118 -318 -160 -35 -25 -43 -36 -40
-58 5 -45 54 -55 253 -49 94 3 211 13 260 22 97 17 259 24 271 13 24 -25 -136
-106 -421 -213 -467 -175 -672 -311 -587 -388 36 -33 109 -22 324 49 186 60
298 87 298 70 0 -37 -95 -134 -250 -257 -109 -87 -348 -271 -365 -281 -6 -4
-40 18 -75 49 -36 30 -191 138 -345 240 -266 177 -525 362 -554 397 -41 50 30
28 259 -79 188 -88 255 -112 341 -121 54 -5 68 -3 82 11 24 24 21 66 -8 109
l-24 36 47 0 c26 0 102 -7 168 -16 104 -14 125 -14 150 -3 40 20 40 40 -1 82
-61 63 -93 81 -400 235 -328 165 -516 269 -555 307 l-25 25 63 0 c34 0 141
-16 237 -35 191 -39 363 -51 387 -27 32 32 -92 166 -228 244 -43 25 -189 100
-324 165 -135 66 -254 128 -265 137 -19 17 -18 17 35 11 30 -4 91 -11 135 -16
44 -5 135 -9 203 -9 139 0 147 4 118 69 -33 72 -117 146 -397 348 -69 50 -132
99 -139 108 -14 16 -9 17 65 11 44 -3 128 -9 188 -12 l107 -6 0 26 c0 75 -58
155 -275 375 -121 123 -163 172 -145 168 14 -3 70 -9 125 -12 79 -6 104 -4
119 8 33 25 12 60 -96 159 -56 51 -127 117 -158 145 l-55 53 90 0 c140 0 226
11 233 28 3 8 -5 34 -17 58 -23 42 -99 113 -294 272 -136 111 -186 155 -182
162 2 3 42 1 90 -4 72 -8 88 -7 96 5 20 31 -14 111 -111 264 -149 235 -194
386 -211 710 -12 237 -39 345 -79 320 -23 -14 -31 -62 -46 -274 -8 -119 -21
-247 -29 -286 -19 -88 -66 -188 -154 -323 -38 -59 -75 -120 -81 -136 -21 -56
5 -70 74 -41 48 20 47 8 -10 -80 -60 -93 -57 -107 25 -120 36 -6 66 -16 69
-23 10 -30 -76 -124 -243 -267 -179 -152 -275 -273 -275 -346 0 -44 9 -49 93
-49 66 0 146 16 267 54 41 13 93 26 115 30 l40 7 -26 -23 c-14 -13 -54 -43
-89 -68 -80 -57 -256 -230 -299 -293 -80 -118 -50 -162 83 -122 27 8 51 13 53
11 16 -16 -68 -92 -239 -214 -181 -130 -238 -202 -172 -218 59 -15 159 4 295
56 150 58 239 75 239 45 0 -9 -33 -50 -72 -89 -70 -70 -83 -78 -348 -208 -295
-146 -360 -190 -429 -295 -41 -62 -41 -98 -1 -106 41 -9 166 8 285 38 55 14
129 28 164 32 58 6 63 5 54 -11 -17 -30 -125 -104 -298 -202 -244 -140 -389
-238 -467 -315 -115 -115 -105 -149 46 -149 124 1 224 25 523 126 196 66 270
87 328 91 64 5 75 4 75 -10 0 -28 -70 -74 -261 -173 -104 -53 -222 -119 -263
-146 -96 -64 -206 -172 -206 -204 0 -53 62 -56 268 -14 167 34 243 41 249 23
7 -20 -76 -101 -161 -157 -45 -30 -205 -122 -356 -206 -326 -181 -424 -240
-533 -317 -96 -69 -267 -232 -267 -256 0 -33 42 -47 166 -53 150 -8 320 9 427
42 45 15 177 62 294 105 213 79 377 129 423 129 47 -1 6 -32 -465 -343 -137
-91 -299 -205 -360 -253 -306 -247 -413 -421 -247 -401 59 7 154 39 247 84 64
31 95 40 95 28 0 -2 -9 -19 -20 -37 -11 -18 -20 -39 -20 -47 0 -26 98 -5 270
57 168 61 275 90 287 79 12 -13 -47 -85 -97 -117 -28 -18 -149 -72 -268 -120
-369 -149 -495 -217 -631 -345 -134 -127 -195 -233 -144 -252 29 -11 137 13
323 73 99 32 183 54 187 51 3 -4 -2 -20 -13 -35 -11 -15 -31 -41 -43 -59 -15
-19 -21 -38 -17 -49 12 -32 142 -12 328 50 90 30 186 57 213 61 l50 6 -41 -38
c-23 -21 -97 -69 -165 -107 -245 -135 -309 -186 -393 -310 -53 -79 -25 -126
77 -126 137 0 314 55 571 175 99 47 182 83 184 80 7 -7 -35 -59 -146 -179
-132 -142 -187 -243 -149 -275 50 -41 173 -13 346 77 359 187 441 220 441 176
0 -10 -16 -65 -36 -123 -29 -83 -34 -110 -27 -135 8 -28 13 -31 56 -34 39 -3
62 4 125 35 42 21 80 39 83 41 6 3 22 -313 20 -398 -1 -71 8 -106 35 -135 13
-15 32 -37 40 -50 8 -13 30 -30 49 -39 98 -47 203 27 191 134 -3 25 -7 191 -9
370 l-4 325 37 -3 c51 -5 80 23 130 127 l41 83 31 -28 c17 -16 66 -74 111
-129 159 -198 312 -335 375 -335 22 0 17 -8 -47 -75 -121 -128 -151 -181 -119
-213 28 -28 268 -6 628 59 233 42 348 57 494 65 l127 7 -7 -44 c-9 -61 -51
-151 -121 -255 -78 -116 -105 -169 -101 -202 4 -35 53 -46 179 -38 224 14 338
67 704 331 83 59 160 112 173 118 51 23 55 -47 12 -188 -37 -120 -40 -189 -9
-206 50 -26 176 17 348 120 51 31 113 73 136 94 48 41 60 45 70 20 3 -10 3
-144 -1 -298 -8 -317 -5 -333 56 -389 30 -27 50 -36 93 -41 65 -8 126 0 182
24 69 30 70 33 73 241 l4 188 58 -24 c112 -45 311 -87 366 -76 38 7 30 47 -27
132 -53 79 -89 143 -89 158 0 5 44 9 98 8 l97 -1 3 26 c2 14 -6 50 -18 79 -11
29 -18 55 -16 58 3 3 29 -4 58 -15 29 -12 100 -39 158 -61 l105 -41 3 -90 3
-91 79 0 c44 0 80 -4 80 -9 0 -5 -18 -40 -40 -77 -22 -38 -40 -74 -40 -82 0
-22 48 -32 150 -32 127 0 222 19 356 70 60 23 133 51 162 63 29 11 55 18 58
15 2 -3 -5 -29 -16 -58 -12 -29 -20 -65 -18 -79 l3 -26 98 1 c53 1 97 -3 97
-8 0 -15 -36 -79 -89 -158 -57 -85 -65 -125 -27 -132 55 -11 254 31 366 76
l58 24 4 -188 c3 -208 4 -211 73 -241 56 -24 117 -32 182 -24 43 5 63 14 93
41 61 56 64 72 56 389 -4 154 -4 288 -1 298 10 25 22 21 70 -21 23 -20 85 -62
136 -93 172 -103 298 -146 348 -120 31 17 28 86 -9 206 -43 141 -39 211 12
188 13 -6 91 -59 173 -118 371 -267 481 -318 718 -332 l107 -6 0 92 0 92 -51
76 c-62 91 -105 183 -113 241 l-6 43 85 -3 85 -3 0 605 0 606 -57 28 c-118 57
-243 166 -243 211 0 19 47 35 100 35 48 0 50 -1 50 -28 0 -49 35 -62 119 -46
l31 7 0 375 c0 335 -2 377 -17 394 -15 17 -15 18 0 18 15 0 17 26 17 279 l0
279 -97 78 c-161 128 -253 223 -253 260 0 18 203 -32 338 -83 9 -4 12 22 12
110 l0 114 -62 28 c-34 15 -149 61 -257 102 -295 112 -442 186 -417 211 12 11
174 4 271 -13 99 -18 397 -32 439 -21 26 6 27 9 24 63 l-3 57 -70 38 c-38 21
-145 70 -237 109 -240 102 -318 152 -359 231 -24 47 -24 47 6 58 39 15 127 -6
275 -67 117 -49 144 -56 204 -57 58 -1 70 2 82 19 20 30 -10 88 -91 174 -125
132 -229 196 -464 286 -150 56 -206 82 -222 101 -18 22 -4 28 59 26 63 -2 148
-21 356 -76 164 -45 250 -51 272 -21 51 68 -99 219 -361 366 -212 119 -299
174 -348 221 -27 25 -47 52 -45 60 4 10 35 13 132 13 111 0 130 3 141 18 31
43 -8 80 -321 307 -202 147 -311 250 -264 250 5 0 80 -21 167 -46 318 -92 452
-98 461 -21 5 43 -43 94 -218 227 -157 119 -233 191 -212 198 6 2 39 -9 74
-23 153 -64 175 -70 193 -55 25 20 12 64 -35 126 -46 58 -137 142 -315 289
-195 161 -305 273 -305 311 0 21 21 17 107 -17 87 -34 196 -49 231 -30 55 29
11 105 -161 276 -155 154 -197 206 -197 242 0 27 -8 27 105 8 120 -20 171 -19
179 1 19 49 -10 104 -158 304 -51 69 -101 137 -111 152 -16 27 -16 27 7 32 12
3 43 7 68 8 41 3 45 5 48 32 6 48 -5 71 -93 201 -47 68 -90 137 -96 152 -14
37 -4 73 21 73 27 0 26 29 -5 121 -35 102 -62 241 -75 389 -12 138 -22 194
-46 258 -13 34 -20 42 -40 42 -40 0 -52 -43 -119 -405 -53 -289 -105 -431
-239 -652 -36 -61 -66 -119 -66 -131 0 -22 29 -35 108 -47 79 -13 89 -44 43
-142 -38 -81 -95 -164 -195 -288 -295 -365 -344 -432 -372 -515 -10 -29 -11
-46 -4 -60 25 -47 85 -34 292 59 84 37 166 71 181 75 25 6 27 5 18 -13 -15
-26 -135 -115 -266 -196 -178 -110 -256 -165 -318 -226 -52 -50 -58 -60 -55
-90 l3 -34 90 0 c60 0 138 10 232 30 78 16 146 26 150 21 13 -13 -137 -150
-357 -326 -217 -174 -382 -326 -407 -374 -15 -28 -14 -31 7 -48 40 -33 143
-20 405 51 115 31 170 38 180 21 13 -21 -147 -122 -410 -260 -200 -105 -255
-148 -255 -199 0 -34 35 -44 149 -40 103 4 106 3 117 -20 7 -13 18 -28 26 -32
21 -14 90 -10 147 7 29 8 55 13 57 11 6 -6 -120 -123 -189 -176 l-57 -43 -47
39 c-27 22 -155 120 -287 218 -216 161 -383 301 -372 312 2 2 28 -3 57 -11 57
-17 126 -21 147 -7 8 4 19 19 26 32 11 23 14 24 117 20 114 -4 149 6 149 40 0
51 -55 94 -255 199 -263 138 -423 239 -410 260 10 17 65 10 180 -21 262 -71
365 -84 405 -51 21 17 22 20 7 48 -25 48 -190 200 -407 374 -220 176 -370 313
-357 326 4 5 72 -5 150 -21 94 -20 172 -30 232 -30 l90 0 3 34 c6 58 -98 146
-373 316 -131 81 -251 170 -266 196 -9 18 -7 19 18 13 15 -4 97 -38 181 -75
207 -93 267 -106 292 -59 7 14 6 31 -4 60 -28 83 -77 150 -372 515 -100 124
-157 207 -195 288 -46 98 -36 129 43 142 79 12 108 25 108 47 0 12 -30 70 -66
131 -134 221 -186 363 -239 652 -67 362 -79 405 -119 405 -20 0 -27 -8 -40
-42z m-2425 -6543 c128 -25 241 -45 252 -45 15 0 10 -11 -30 -57 -27 -32 -62
-75 -77 -95 l-28 -37 -121 61 c-187 93 -287 166 -287 207 0 19 51 13 291 -34z
m813 -184 c16 -6 13 -12 -27 -47 -65 -57 -273 -204 -289 -204 -7 1 -43 18 -81
39 l-67 38 117 56 c156 74 208 96 268 112 58 16 55 16 79 6z m261 -733 c32
-14 32 -26 -4 -76 -40 -54 -134 -120 -261 -182 l-105 -51 -173 78 c-94 42
-169 80 -164 84 4 4 31 14 60 24 46 15 60 15 97 5 50 -14 65 -8 65 25 0 21 9
27 66 45 l66 20 65 -20 c74 -23 133 -26 151 -8 7 7 12 25 12 40 0 27 2 28 50
28 27 0 61 -5 75 -12z m-345 -653 c0 -21 -57 -82 -130 -140 l-62 -48 7 89 c4
49 12 95 17 102 7 8 38 12 89 12 64 0 79 -3 79 -15z m-411 -133 c42 -38 88
-77 104 -87 15 -9 27 -20 27 -24 0 -4 -26 -25 -58 -47 l-58 -40 -101 120 -101
121 36 12 c61 19 72 16 151 -55z"/>
</g>
</svg>
